# This file uses centimeters as units for non-parametric coordinates.

v 1.982085 0.000000 -1.440075
v 0.757085 0.000000 -2.330090
v -0.757085 0.000000 -2.330090
v -1.982085 0.000000 -1.440075
v -2.450000 0.000000 0.000000
v -1.982085 0.000000 1.440075
v -0.757085 0.000000 2.330090
v 0.757085 0.000000 2.330090
v 1.982085 0.000000 1.440075
v 2.450000 0.000000 0.000000
v 1.982085 7.499555 -1.440075
v 0.757085 7.342720 -2.330090
v -0.757085 7.499555 -2.330090
v -1.982085 7.588070 -1.440075
v -2.450000 7.588070 0.000000
v -1.982085 7.588070 1.440075
v -0.757085 7.588070 2.330090
v 0.757085 7.588070 2.330090
v 1.982085 7.588070 1.440075
v 2.450000 7.588070 0.000000
v 0.783475 7.365050 2.404885
v 2.047675 7.371280 1.486940
v 2.528960 7.358295 0.003115
v 2.052785 7.289520 -1.485750
v 0.782670 7.130235 -2.407790
v -0.787220 7.269115 -2.410800
v -2.050265 7.368445 -1.490125
v -2.531830 7.370755 -0.001820
v -2.047220 7.366345 1.486310
v -0.780920 7.372960 2.407720
v 1.986040 7.229810 1.444380
v 2.441040 7.208250 0.004690
v 1.993915 7.146195 -1.451450
v 0.758450 6.991670 -2.341990
v -0.757120 7.121590 -2.337860
v -1.989155 7.225575 -1.449000
v -2.448775 7.216475 -0.002555
v -1.979145 7.210735 1.438360
v -0.758730 7.216615 2.330685
v 0.754740 7.206885 2.325330
v -0.778050 7.511630 2.397850
v -2.044350 7.500745 1.486100
v -2.525285 7.508795 -0.002660
v -2.045505 7.500850 -1.486975
v -0.783965 7.409710 -2.415700
v 0.782005 7.263270 -2.404290
v 2.035495 7.418110 -1.478540
v 2.527560 7.501690 0.002870
v 2.044525 7.502845 1.485925
v 0.781655 7.500745 2.403800
v -0.000210 7.013650 0.000840
v 0.727545 5.448730 2.243780
v 1.903440 5.468785 1.385895
v 2.294110 5.450795 0.008470
v 1.839810 5.406380 -1.338050
v 0.719250 5.292280 -2.225265
v -0.728595 5.384645 -2.247350
v -1.906730 5.461400 -1.388730
v -2.358650 5.456430 -0.002450
v -1.907710 5.450235 1.385965
v -0.731780 5.459195 2.243220
v -0.734055 2.754675 2.254595
v 0.733285 2.748690 2.256205
v 1.916040 2.758735 1.392720
v 2.339820 2.750125 0.005145
v 1.884645 2.727165 -1.369830
v 0.734545 2.677570 -2.266180
v -0.734475 2.719045 -2.263380
v -1.917405 2.754780 -1.393805
v -2.370760 2.752365 -0.000700
v -1.918140 2.749355 1.393455
v -1.967490 0.594055 1.429715
v -2.432045 0.590835 -0.001505
v -1.968085 0.595175 -1.428280
v -0.751380 0.588700 -2.314060
v 0.750610 0.578095 -2.314375
v 1.966930 0.588000 -1.430345
v 2.433095 0.590065 0.002485
v 1.966650 0.595945 1.429085
v 0.751275 0.594125 2.313710
v -0.751485 0.593355 2.314165
v 0.783370 0.282170 2.416820
v 2.058105 0.280175 1.493485
v 2.538410 0.288365 -0.001575
v 2.059085 0.278180 -1.494955
v 0.786240 0.273665 -2.421790
v -0.784490 0.276465 -2.418920
v -2.051140 0.293125 -1.486940
v -2.545025 0.276920 0.001295
v -2.048165 0.294840 1.489670
v -0.785260 0.281960 2.415700
v 0.795410 0.110950 2.453745
v 2.083340 0.089005 1.511440
v 2.576770 0.095445 -0.004655
v 2.081905 0.080850 -1.509480
v 0.793135 0.078435 -2.444785
v -0.792470 0.088795 -2.448110
v -2.083445 0.093975 -1.513680
v -2.571695 0.082530 0.001015
v -2.085440 0.098700 1.513750
v -0.793345 0.088830 2.449300
v -0.004025 0.331765 -0.001330
vt 0.705197 0.805161
vt 0.717339 0.893735
vt 0.709876 0.893188
vt 0.697706 0.804527
vt 0.714048 0.716508
vt 0.705890 0.715932
vt 0.718735 0.628075
vt 0.710925 0.627938
vt 0.716914 0.540100
vt 0.708899 0.540109
vt 0.715169 0.451896
vt 0.707424 0.452253
vt 0.715587 0.363758
vt 0.707495 0.364223
vt 0.705778 0.276075
vt 0.713613 0.275441
vt 0.707889 0.186866
vt 0.701232 0.187638
vt 0.706475 0.097257
vt 0.697759 0.098168
vt 0.715420 0.983772
vt 0.707080 0.982921
vt 0.142367 0.150069
vt 0.849863 0.146556
vt 0.695464 0.277364
vt 0.693028 0.189423
vt 0.687812 0.101956
vt 0.697402 0.979472
vt 0.700592 0.891315
vt 0.689311 0.803420
vt 0.696211 0.715653
vt 0.701422 0.627855
vt 0.698836 0.540240
vt 0.697357 0.452596
vt 0.697327 0.365087
vt 0.721496 0.363614
vt 0.720172 0.275095
vt 0.721777 0.451803
vt 0.723106 0.539870
vt 0.725397 0.628061
vt 0.721180 0.716693
vt 0.711539 0.805273
vt 0.723168 0.893837
vt 0.722093 0.982425
vt 0.713544 0.186744
vt 0.713551 0.098481
vt 0.930319 0.266103
vt 0.845260 0.290533
vt 0.762061 0.260459
vt 0.768737 0.028954
vt 0.854713 0.005828
vt 0.938889 0.034773
vt 0.988813 0.108107
vt 0.985053 0.196553
vt 0.599022 0.884161
vt 0.590552 0.800467
vt 0.594153 0.714886
vt 0.597071 0.628396
vt 0.595565 0.541833
vt 0.594265 0.455229
vt 0.594146 0.369099
vt 0.593157 0.283114
vt 0.594003 0.197834
vt 0.592439 0.114590
vt 0.603195 0.966764
vt 0.436650 0.282822
vt 0.437773 0.196932
vt 0.439009 0.112568
vt 0.450072 0.973581
vt 0.444176 0.889679
vt 0.438742 0.804534
vt 0.439355 0.717884
vt 0.439941 0.630765
vt 0.438576 0.543620
vt 0.437468 0.456415
vt 0.437146 0.369499
vt 0.311674 0.368489
vt 0.311779 0.280273
vt 0.313237 0.192192
vt 0.315790 0.104859
vt 0.327235 0.985437
vt 0.320538 0.898006
vt 0.317026 0.809926
vt 0.315748 0.721708
vt 0.314657 0.633328
vt 0.313107 0.545194
vt 0.312443 0.456791
vt 0.292230 0.278672
vt 0.295113 0.189053
vt 0.297328 0.098763
vt 0.309389 0.991597
vt 0.301347 0.901801
vt 0.297815 0.812255
vt 0.296079 0.723203
vt 0.295834 0.634063
vt 0.293226 0.545303
vt 0.293792 0.456432
vt 0.291949 0.367661
vt 0.282145 0.278083
vt 0.284842 0.188213
vt 0.285636 0.097020
vt 0.298014 0.993552
vt 0.289991 0.903134
vt 0.286432 0.813132
vt 0.285084 0.723899
vt 0.284096 0.634562
vt 0.281831 0.545479
vt 0.282207 0.456543
vt 0.280538 0.367227
vt 0.272647 0.277641
vt 0.277129 0.188096
vt 0.276425 0.100022
vt 0.288802 0.992104
vt 0.281945 0.903487
vt 0.278435 0.813625
vt 0.276583 0.724056
vt 0.275315 0.634770
vt 0.273607 0.545642
vt 0.273183 0.456515
vt 0.271977 0.367248
vt 0.230398 0.262025
vt 0.147960 0.292399
vt 0.063442 0.268398
vt 0.009186 0.199288
vt 0.005828 0.111493
vt 0.054575 0.038400
vt 0.136943 0.007839
vt 0.221544 0.031468
vn 0.290810 0.304846 -0.906917
vn 0.752531 0.333538 -0.567847
vn 0.808108 -0.209254 -0.550613
vn 0.298053 -0.236283 -0.924843
vn -0.270732 0.328268 -0.904955
vn -0.322791 -0.240332 -0.915449
vn -0.755891 0.334333 -0.562895
vn -0.793219 -0.234345 -0.562037
vn -0.946427 0.322916 -0.001311
vn -0.970647 -0.240445 0.005588
vn -0.766603 0.316446 0.558733
vn -0.785856 -0.241007 0.569513
vn -0.292068 0.316599 0.902475
vn -0.297365 -0.236991 0.924883
vn 0.296403 -0.244340 0.923279
vn 0.292348 0.314965 0.902956
vn 0.769140 0.312531 0.557447
vn 0.784024 -0.251243 0.567612
vn 0.946322 0.323204 -0.003633
vn 0.972419 -0.233173 0.005701
vn 0.001979 0.999985 -0.005049
vn 0.366545 0.866571 -0.338673
vn 0.160352 0.847038 -0.506768
vn -0.097883 0.863199 -0.495284
vn -0.385119 0.867903 -0.313733
vn -0.510287 0.859992 0.004638
vn -0.420828 0.854603 0.304231
vn -0.161710 0.853342 0.495639
vn 0.165903 0.850989 0.498292
vn 0.423112 0.851794 0.308905
vn 0.505799 0.862470 -0.017675
vn 0.269656 -0.445272 0.853826
vn 0.714259 -0.461233 0.526401
vn 0.881764 -0.471491 0.013744
vn 0.736033 -0.458571 -0.497964
vn 0.269083 -0.448270 -0.852437
vn -0.300615 -0.442734 -0.844759
vn -0.730884 -0.449169 -0.513864
vn -0.892501 -0.450994 0.006832
vn -0.723705 -0.447574 0.525290
vn -0.277802 -0.443757 0.852001
vn 0.816610 -0.000919 0.577190
vn 0.999899 0.005502 -0.013112
vn 0.823133 0.011624 -0.567730
vn 0.330092 0.011350 -0.943880
vn -0.319958 0.003391 -0.947426
vn -0.812807 -0.002480 -0.582528
vn -0.999994 -0.003124 -0.001264
vn -0.809497 -0.002948 0.587116
vn -0.309703 -0.003162 0.950828
vn 0.309896 -0.002914 0.950766
vn 0.309494 0.015501 0.950775
vn 0.814075 0.018888 0.580453
vn 0.999580 0.026554 -0.011598
vn 0.815583 0.028690 -0.577928
vn 0.322693 0.022209 -0.946243
vn -0.310990 0.016117 -0.950277
vn -0.810080 0.014960 -0.586128
vn -0.999883 0.015286 -0.000181
vn -0.809399 0.015289 0.587060
vn -0.309412 0.015265 0.950805
vn -0.308849 0.042827 0.950146
vn 0.308956 0.042657 0.950119
vn 0.810287 0.046927 0.584152
vn 0.998403 0.056281 -0.004857
vn 0.811761 0.057416 -0.581160
vn 0.315045 0.048162 -0.947854
vn -0.311775 0.041739 -0.949239
vn -0.809409 0.042968 -0.585671
vn -0.999016 0.044363 -0.000129
vn -0.808638 0.043470 0.586699
vn -0.297641 0.341389 0.891551
vn 0.289458 0.346760 0.892172
vn 0.765525 0.333270 0.550367
vn 0.947636 0.319352 -0.001028
vn 0.769266 0.301733 -0.563194
vn 0.298286 0.295792 -0.907487
vn -0.293950 0.315567 -0.902225
vn -0.768112 0.321805 -0.553575
vn -0.947731 0.319070 0.000085
vn -0.762756 0.329822 0.556257
vn 0.297294 -0.262632 0.917955
vn 0.782918 -0.262644 0.563966
vn 0.965646 -0.259834 -0.003875
vn 0.782025 -0.269396 -0.562016
vn 0.297391 -0.277693 -0.913480
vn -0.301530 -0.262737 -0.916542
vn -0.782096 -0.251136 -0.570313
vn -0.967724 -0.252012 0.000548
vn -0.784202 -0.247218 0.569132
vn -0.300849 -0.254019 0.919219
vn 0.107927 -0.937107 0.331938
vn 0.266811 -0.942358 0.201922
vn 0.318064 -0.948061 0.003977
vn 0.249310 -0.952436 -0.175241
vn 0.090359 -0.954536 -0.284071
vn -0.102100 -0.950390 -0.293827
vn -0.253771 -0.948931 -0.187433
vn -0.315859 -0.948804 0.002013
vn -0.264257 -0.944285 0.196200
vn -0.103478 -0.938936 0.328165
vn 0.000358 -1.000000 0.000178
s 1
f 46/1/1 47/2/2 24/3/3 25/4/4
f 45/5/5 46/1/1 25/4/4 26/6/6
f 44/7/7 45/5/5 26/6/6 27/8/8
f 43/9/9 44/7/7 27/8/8 28/10/10
f 42/11/11 43/9/9 28/10/10 29/12/12
f 41/13/13 42/11/11 29/12/12 30/14/14
f 41/13/13 30/14/14 21/15/15 50/16/16
f 49/17/17 50/16/16 21/15/15 22/18/18
f 48/19/19 49/17/17 22/18/18 23/20/20
f 47/2/2 48/21/19 23/22/20 24/3/3
f 51/24/21 11/50/22 12/51/23
f 51/24/21 12/51/23 13/52/24
f 51/24/21 13/52/24 14/53/25
f 51/24/21 14/53/25 15/54/26
f 51/24/21 15/54/26 16/47/27
f 51/24/21 16/47/27 17/48/28
f 51/24/21 17/48/28 18/49/29
f 51/24/21 18/49/29 19/45/30
f 51/24/21 19/45/30 20/46/31
f 51/24/21 20/46/31 11/50/22
f 22/18/18 21/15/15 40/25/32 31/26/33
f 23/20/20 22/18/18 31/26/33 32/27/34
f 24/3/3 23/22/20 32/28/34 33/29/35
f 25/4/4 24/3/3 33/29/35 34/30/36
f 26/6/6 25/4/4 34/30/36 35/31/37
f 27/8/8 26/6/6 35/31/37 36/32/38
f 28/10/10 27/8/8 36/32/38 37/33/39
f 29/12/12 28/10/10 37/33/39 38/34/40
f 30/14/14 29/12/12 38/34/40 39/35/41
f 21/15/15 30/14/14 39/35/41 40/25/32
f 32/27/34 31/26/33 53/63/42 54/64/43
f 33/29/35 32/28/34 54/65/43 55/55/44
f 34/30/36 33/29/35 55/55/44 56/56/45
f 35/31/37 34/30/36 56/56/45 57/57/46
f 36/32/38 35/31/37 57/57/46 58/58/47
f 37/33/39 36/32/38 58/58/47 59/59/48
f 38/34/40 37/33/39 59/59/48 60/60/49
f 39/35/41 38/34/40 60/60/49 61/61/50
f 40/25/32 39/35/41 61/61/50 52/62/51
f 31/26/33 40/25/32 52/62/51 53/63/42
f 17/36/28 41/13/13 50/16/16 18/37/29
f 16/38/27 42/11/11 41/13/13 17/36/28
f 15/39/26 43/9/9 42/11/11 16/38/27
f 14/40/25 44/7/7 43/9/9 15/39/26
f 13/41/24 45/5/5 44/7/7 14/40/25
f 12/42/23 46/1/1 45/5/5 13/41/24
f 11/43/22 47/2/2 46/1/1 12/42/23
f 20/44/31 48/21/19 47/2/2 11/43/22
f 19/45/30 49/17/17 48/19/19 20/46/31
f 18/37/29 50/16/16 49/17/17 19/45/30
f 53/63/42 52/62/51 63/66/52 64/67/53
f 54/64/43 53/63/42 64/67/53 65/68/54
f 55/55/44 54/65/43 65/69/54 66/70/55
f 56/56/45 55/55/44 66/70/55 67/71/56
f 57/57/46 56/56/45 67/71/56 68/72/57
f 58/58/47 57/57/46 68/72/57 69/73/58
f 59/59/48 58/58/47 69/73/58 70/74/59
f 60/60/49 59/59/48 70/74/59 71/75/60
f 61/61/50 60/60/49 71/75/60 62/76/61
f 52/62/51 61/61/50 62/76/61 63/66/52
f 63/66/52 62/76/61 81/77/62 80/78/63
f 64/67/53 63/66/52 80/78/63 79/79/64
f 65/68/54 64/67/53 79/79/64 78/80/65
f 66/70/55 65/69/54 78/81/65 77/82/66
f 67/71/56 66/70/55 77/82/66 76/83/67
f 68/72/57 67/71/56 76/83/67 75/84/68
f 69/73/58 68/72/57 75/84/68 74/85/69
f 70/74/59 69/73/58 74/85/69 73/86/70
f 71/75/60 70/74/59 73/86/70 72/87/71
f 62/76/61 71/75/60 72/87/71 81/77/62
f 80/78/63 81/77/62 91/98/72 82/88/73
f 79/79/64 80/78/63 82/88/73 83/89/74
f 78/80/65 79/79/64 83/89/74 84/90/75
f 77/82/66 78/81/65 84/91/75 85/92/76
f 76/83/67 77/82/66 85/92/76 86/93/77
f 75/84/68 76/83/67 86/93/77 87/94/78
f 74/85/69 75/84/68 87/94/78 88/95/79
f 73/86/70 74/85/69 88/95/79 89/96/80
f 72/87/71 73/86/70 89/96/80 90/97/81
f 81/77/62 72/87/71 90/97/81 91/98/72
f 83/89/74 82/88/73 92/99/82 93/100/83
f 84/90/75 83/89/74 93/100/83 94/101/84
f 85/92/76 84/91/75 94/102/84 95/103/85
f 86/93/77 85/92/76 95/103/85 96/104/86
f 87/94/78 86/93/77 96/104/86 97/105/87
f 88/95/79 87/94/78 97/105/87 98/106/88
f 89/96/80 88/95/79 98/106/88 99/107/89
f 90/97/81 89/96/80 99/107/89 100/108/90
f 91/98/72 90/97/81 100/108/90 101/109/91
f 82/88/73 91/98/72 101/109/91 92/99/82
f 92/99/82 8/110/92 9/111/93 93/100/83
f 93/100/83 9/111/93 10/112/94 94/101/84
f 94/102/84 10/113/94 1/114/95 95/103/85
f 95/103/85 1/114/95 2/115/96 96/104/86
f 96/104/86 2/115/96 3/116/97 97/105/87
f 97/105/87 3/116/97 4/117/98 98/106/88
f 98/106/88 4/117/98 5/118/99 99/107/89
f 99/107/89 5/118/99 6/119/100 100/108/90
f 100/108/90 6/119/100 7/120/101 101/109/91
f 101/109/91 7/120/101 8/110/92 92/99/82
f 8/121/92 7/122/101 102/23/102
f 7/122/101 6/123/100 102/23/102
f 6/123/100 5/124/99 102/23/102
f 5/124/99 4/125/98 102/23/102
f 4/125/98 3/126/97 102/23/102
f 3/126/97 2/127/96 102/23/102
f 2/127/96 1/128/95 102/23/102
f 1/128/95 10/112/94 102/23/102
f 10/112/94 9/111/93 102/23/102
f 9/111/93 8/121/92 102/23/102
