# Blender v2.78 (sub 0) OBJ File: 'TJuSgAiyIzTSDMRH_temp.blend'
# www.blender.org
mtllib TJuSgAiyIzTSDMRH.mtl
o Object__0
v 49.763771 0.000000 50.000000
v 0.559224 52.559349 50.000000
v 49.763771 0.000006 -50.000000
v 49.763771 0.000006 -50.000000
v 0.559224 52.559349 50.000000
v 0.559224 52.559353 -50.000000
v 0.559224 52.559349 50.000000
v -49.763771 0.000000 50.000000
v 0.559224 52.559353 -50.000000
v 0.559224 52.559353 -50.000000
v -49.763771 0.000000 50.000000
v -49.763771 0.000006 -50.000000
v -49.763771 0.000000 50.000000
v 49.763771 0.000000 50.000000
v -49.763771 0.000006 -50.000000
v -49.763771 0.000006 -50.000000
v 49.763771 0.000000 50.000000
v 49.763771 0.000006 -50.000000
vn -0.7300 -0.6834 -0.0000
vn 0.7223 -0.6916 -0.0000
vn 0.0000 1.0000 0.0000
usemtl Material__1
s off
f 1//1 2//1 3//1
f 4//1 5//1 6//1
f 7//2 8//2 9//2
f 10//2 11//2 12//2
f 13//3 14//3 15//3
f 16//3 17//3 18//3
o Object__1
v -49.763771 0.000000 50.000000
v 0.559224 52.559345 50.000000
v 49.763771 0.000000 50.000000
vn 0.0000 0.0000 -1.0000
usemtl Material__1
s off
f 19//4 20//4 21//4
o Object__3
v 49.763771 0.000006 -50.000000
v 0.559224 52.559349 -50.000000
v -49.763771 0.000006 -50.000000
vn 0.0000 0.0000 1.0000
usemtl Material__1
s off
f 22//5 23//5 24//5
