# This file uses centimeters as units for non-parametric coordinates.

v -2.699169 32.497774 -5.848689
v 6.550731 32.970629 -10.559274
v 10.076748 21.438186 10.091763
v 1.395504 34.960333 -18.205738
v -4.332768 4.295610 53.396708
v -5.384544 0.548262 61.351621
v -4.609572 0.115797 62.503123
v -0.237105 0.217470 61.988914
v 2.005575 0.649440 59.997268
v 3.048573 0.511302 59.591532
v -2.579973 16.613255 19.410302
v 6.606204 17.735587 17.649720
v 11.430111 2.279145 48.438522
v -2.643234 0.059829 63.034818
v 5.888652 0.349305 58.953280
v 8.235909 0.114312 57.187845
v 10.701372 0.296274 54.742312
v 11.724438 -0.141075 54.667403
v 12.173469 -0.373626 53.000209
v 19.676911 6.570861 36.190902
v 16.407303 0.332739 49.739351
v 18.186365 0.190212 49.236330
v 19.029417 0.220374 48.224946
v 21.039052 0.071511 46.171026
v 22.832700 0.110418 45.012727
v 23.692812 0.171237 45.424268
v 24.150589 0.150315 44.192015
v 20.893621 9.045597 22.950873
v 29.676008 0.498168 37.864893
v 31.760092 0.000000 35.729726
v 33.970168 0.043296 31.249250
v 37.578882 0.355146 22.451287
v 39.273267 0.470415 19.690506
v 40.974977 0.280698 17.764527
v 41.310653 0.625614 14.635500
v 15.029091 22.494813 1.535094
v 12.104862 27.261829 -22.011000
v 17.260583 21.770430 -12.548481
v 27.903282 9.851688 -1.114773
v 29.436660 9.839049 -10.592340
v 39.227563 1.982409 6.489384
v 41.892014 0.550704 9.308541
v 42.611018 0.336171 13.037904
v 42.235939 0.774972 7.882182
v 42.878087 0.549714 7.464303
v 43.122319 0.503514 2.047353
v 3.363327 32.769727 -20.269886
v 19.429806 22.021956 -15.980580
v 42.463606 1.094577 -9.036588
v 43.108196 0.824109 -5.662371
v 43.241485 0.430518 -2.294457
v 24.518867 9.352563 -34.918255
v 42.374574 0.355146 -19.941999
v 43.522181 0.417879 -22.642917
v 42.945706 0.673761 -24.836459
v 42.136215 0.375078 -40.506444
v 43.375761 0.344421 -26.817417
v 40.359596 0.622215 -45.199013
v 34.971355 4.660458 -21.289059
v 5.045568 21.522832 -31.613605
v 15.943686 10.381965 -41.850106
v 29.200743 5.551689 -48.875343
v 38.940529 0.566247 -49.991337
v 37.852289 0.545358 -51.000774
v 37.229575 0.471405 -53.172404
v 35.515721 0.565785 -55.388818
v 32.462099 0.828465 -57.260311
v 34.359369 0.912648 -55.808180
v 30.647990 0.584265 -58.993142
v 26.611696 0.959343 -60.705548
v 23.275890 0.972477 -62.026833
v 12.598179 5.782788 -49.231448
v 18.302624 1.123782 -64.165859
v 8.039856 3.613071 -56.521838
v 5.581686 0.690327 -66.347262
v 16.276920 1.082400 -65.304230
v 13.117731 1.012374 -65.959048
v 11.581416 0.860574 -66.811337
v 5.646861 8.742030 -52.456799
v 5.520372 6.416652 -55.089145
v 5.114175 4.272246 -59.198437
v 2.114046 0.612480 -66.457183
v 5.419194 16.860889 -36.536279
v 4.431141 28.481409 -26.680203
v 3.361380 30.948851 -23.913120
v 4.630131 24.985588 -29.238627
v 5.123910 14.045130 -41.995074
v 5.563668 11.174427 -48.041036
v 0.036795 16.600618 -41.599571
v -1.060719 0.898524 -66.606538
v -7.441368 0.392601 -65.480351
v -12.436545 0.137676 -64.746264
v -17.584480 0.258324 -64.232024
v -22.917742 0.286539 -64.741874
v -15.945996 7.541391 -54.605101
v -27.340796 0.309903 -62.039008
v -33.681581 0.354651 -58.261467
v -19.365951 6.788331 -45.665566
v -1.899876 13.496406 -51.622000
v -16.100205 9.598248 -46.038202
v -5.075136 23.535865 -26.917604
v -39.362697 0.513249 -47.448983
v -38.361509 0.482592 -52.497192
v -7.049757 32.488533 -17.189006
v -40.364348 0.515658 -44.419187
v -35.485922 6.163212 -37.158002
v -41.900660 0.170280 -42.028139
v -43.143110 0.312807 -41.387938
v -42.527233 0.422268 -38.722532
v -43.428196 0.238854 -33.449099
v -44.105359 0.107019 -35.462130
v -43.838290 0.370689 -28.951593
v -33.236939 8.023488 -28.714685
v -44.983454 0.117249 -25.836161
v -30.646936 8.242410 -20.957277
v -19.653480 16.600122 -20.997669
v -44.457601 0.379929 -22.477522
v -44.195383 0.671814 -14.744928
v -45.390641 0.245685 -8.489283
v -19.329948 14.127366 -15.251346
v -20.448846 16.559764 -8.264553
v -38.967193 4.986399 -3.595317
v -44.530068 0.699072 -2.185986
v -7.668078 31.110850 -8.806974
v -32.675049 7.727247 7.858356
v -44.342794 0.854271 12.006555
v -44.112684 0.300168 17.249364
v -41.965342 0.327888 21.466632
v -37.793316 0.218922 27.268890
v -17.028430 20.142178 -2.894793
v -11.430507 22.101255 2.317854
v -11.863467 3.547896 51.031926
v -14.272038 0.247632 56.808376
v -12.150501 0.184866 59.742343
v -10.513965 0.990957 59.797815
v -9.015633 0.161040 61.255787
v -7.183044 0.466059 61.224174
v -39.992668 0.177078 24.381125
v -34.295514 0.306471 31.527045
v -13.698465 14.047572 23.573087
v -30.400294 0.307461 37.094312
v -25.684824 0.305019 42.917457
v -22.712943 4.384644 38.710388
v -19.546427 0.255387 50.795018
v -16.757466 0.209187 55.706509
v -15.798618 0.603240 55.982354
v 7.251631 17.850902 -33.602045
vt 0.488826 0.526573
vt 0.561425 0.460256
vt 0.286460 0.560254
vt 0.514423 0.363785
vt 0.304043 0.626966
vt 0.080670 0.753950
vt 0.007611 0.758638
vt 0.008898 0.777083
vt 0.013005 0.737999
vt 0.005839 0.710862
vt 0.011695 0.730378
vt 0.007576 0.690351
vt 0.016351 0.650567
vt 0.024114 0.613792
vt 0.052683 0.640330
vt 0.020677 0.601487
vt 0.023402 0.593143
vt 0.027890 0.558450
vt 0.107489 0.547210
vt 0.026922 0.573390
vt 0.048762 0.470207
vt 0.045957 0.490934
vt 0.425779 0.369870
vt 0.188134 0.263155
vt 0.154411 0.302346
vt 0.130948 0.315239
vt 0.161206 0.294513
vt 0.210171 0.242377
vt 0.572986 0.401122
vt 0.229120 0.228499
vt 0.249557 0.216380
vt 0.311821 0.143843
vt 0.303114 0.161662
vt 0.325112 0.136511
vt 0.331184 0.124394
vt 0.590898 0.312635
vt 0.561626 0.180417
vt 0.469636 0.022673
vt 0.512094 0.080063
vt 0.460019 0.023914
vt 0.481696 0.013215
vt 0.508408 0.010801
vt 0.500293 0.007861
vt 0.541921 0.005839
vt 0.524833 0.009390
vt 0.571996 0.012090
vt 0.650193 0.022518
vt 0.633929 0.022041
vt 0.668411 0.107285
vt 0.671726 0.029609
vt 0.684144 0.029633
vt 0.669832 0.156544
vt 0.679384 0.133633
vt 0.696681 0.105257
vt 0.653747 0.188221
vt 0.904325 0.468367
vt 0.878915 0.467430
vt 0.936960 0.476089
vt 0.991781 0.504103
vt 0.648832 0.456581
vt 0.620562 0.457888
vt 0.678650 0.460576
vt 0.885938 0.626560
vt 0.951890 0.713067
vt 0.826898 0.658356
vt 0.889024 0.793259
vt 0.927174 0.758258
vt 0.776469 0.848279
vt 0.797343 0.833723
vt 0.712052 0.762802
vt 0.636137 0.659514
vt 0.655268 0.757829
vt 0.543424 0.686295
vt 0.415056 0.926521
vt 0.456407 0.816820
vt 0.450169 0.917027
vt 0.382996 0.921378
vt 0.359830 0.915707
vt 0.308440 0.713367
vt 0.448534 0.629572
vt 0.059056 0.827737
vt 0.117074 0.796043
vt 0.083733 0.833412
vt 0.054857 0.815908
vt 0.039786 0.811458
vt 0.034880 0.799640
vt 0.205261 0.870722
vt 0.137380 0.852135
vt 0.227828 0.830110
vt 0.098077 0.845866
vt 0.094118 0.839724
vt 0.489693 0.457755
vt 0.329059 0.511545
vt 0.018388 0.787803
vt 0.028594 0.788689
vt 0.013910 0.666921
vt 0.009388 0.660583
vt 0.183078 0.488288
vt 0.028500 0.547542
vt 0.022403 0.554535
vt 0.065158 0.439484
vt 0.100450 0.382895
vt 0.108930 0.362132
vt 0.362778 0.449092
vt 0.112129 0.344504
vt 0.128351 0.329488
vt 0.183430 0.305841
vt 0.334586 0.289504
vt 0.289304 0.343078
vt 0.439908 0.345042
vt 0.160362 0.289071
vt 0.557897 0.427569
vt 0.590018 0.449627
vt 0.480247 0.183832
vt 0.401836 0.059858
vt 0.431794 0.043642
vt 0.352699 0.198408
vt 0.577678 0.373279
vt 0.585399 0.342659
vt 0.608061 0.267490
vt 0.596326 0.016427
vt 0.613375 0.137876
vt 0.632074 0.230525
vt 0.719669 0.053286
vt 0.993629 0.479575
vt 0.842676 0.466030
vt 0.795107 0.465521
vt 0.990014 0.526901
vt 0.753315 0.459064
vt 0.707063 0.458481
vt 0.780562 0.505010
vt 0.982736 0.572665
vt 0.976976 0.608256
vt 0.970488 0.644301
vt 0.852740 0.522780
vt 0.661738 0.533973
vt 0.970495 0.681888
vt 0.854804 0.803257
vt 0.823299 0.628390
vt 0.569551 0.528266
vt 0.835302 0.812409
vt 0.772695 0.772830
vt 0.820731 0.825799
vt 0.761748 0.846389
vt 0.730983 0.853915
vt 0.711142 0.865843
vt 0.687395 0.866416
vt 0.517771 0.552973
vt 0.633378 0.874973
vt 0.596580 0.680218
vt 0.592348 0.892814
vt 0.546285 0.845341
vt 0.547773 0.895968
vt 0.496226 0.660288
vt 0.336629 0.908401
vt 0.301037 0.896449
vt 0.255580 0.885608
vt 0.816453 0.834484
vt 0.585652 0.279713
vn 0.244738 0.881719 0.403329
vn 0.372517 0.922174 0.104054
vn 0.169047 0.962454 0.212380
vn 0.563088 0.824175 -0.060557
vn 0.127400 0.918196 0.375080
vn -0.017870 0.921974 0.386840
vn 0.010527 0.916118 0.400771
vn 0.185976 0.913010 0.363077
vn 0.283669 0.908120 0.307978
vn 0.223594 0.911727 0.344614
vn 0.221684 0.916623 0.332654
vn 0.441463 0.859953 0.256110
vn 0.209972 0.854482 0.475156
vn 0.291938 0.870672 0.395856
vn 0.234673 0.899634 0.368223
vn 0.363139 0.837605 0.408103
vn 0.214394 0.900999 0.377143
vn 0.367517 0.806931 0.462379
vn 0.450738 0.721079 0.526194
vn 0.401583 0.911998 0.083613
vn 0.382227 0.915117 0.128309
vn 0.413122 0.910048 0.033818
vn 0.317436 0.939490 0.128815
vn 0.625635 0.779339 0.034807
vn 0.554081 0.828916 0.076760
vn 0.487421 0.866388 0.108598
vn 0.468526 0.882977 -0.028889
vn 0.588383 0.807881 0.033665
vn 0.450408 0.892092 -0.036114
vn 0.429073 0.901956 -0.048697
vn 0.398417 0.877348 -0.267440
vn 0.377425 0.918177 -0.120423
vn 0.386040 0.886151 -0.256337
vn 0.444408 0.872374 -0.203628
vn 0.319025 0.880132 -0.351556
vn 0.389239 0.873798 -0.291497
vn 0.259846 0.876835 -0.404526
vn 0.269208 0.878878 -0.393827
vn 0.139661 0.907710 -0.395673
vn 0.103829 0.940557 -0.323375
vn 0.066870 0.953763 -0.293026
vn 0.163081 0.933527 -0.319269
vn 0.070618 0.940759 -0.331642
vn -0.006202 0.954721 -0.297437
vn 0.474181 0.746250 -0.467187
vn 0.664901 0.610174 -0.430807
vn 0.649813 0.612873 -0.449588
vn 0.426355 0.787751 -0.444601
vn -0.295877 0.943363 -0.150076
vn -0.282680 0.905716 -0.315865
vn -0.211096 0.942149 -0.260373
vn -0.533310 0.845076 -0.037767
vn -0.565081 0.804018 -0.185035
vn -0.563534 0.825511 -0.031013
vn -0.442984 0.882432 0.158366
vn -0.474966 0.869406 0.136166
vn -0.526914 0.847927 0.058147
vn -0.369641 0.898633 0.236270
vn -0.407399 0.880269 0.243214
vn -0.420180 0.851102 0.314759
vn -0.214902 0.909202 0.356607
vn -0.237978 0.882750 0.405116
vn -0.071586 0.954514 0.289445
vn 0.075452 0.952647 0.294568
vn -0.141893 0.914568 0.378723
vn -0.496817 0.771593 0.397262
vn -0.592634 0.701901 0.395121
vn -0.450318 0.819047 0.355494
vn -0.566128 0.732386 0.378298
vn -0.264355 0.882667 0.388607
vn -0.285269 0.929708 0.232947
vn -0.082212 0.866595 0.492194
vn 0.002287 0.914472 0.404642
vn -0.216913 0.903028 0.370795
vn -0.302305 0.857436 0.416432
vn 0.361908 0.813907 0.454508
vn 0.403021 0.843468 0.355156
vn 0.348168 0.862037 0.368337
vn -0.498535 0.850864 -0.165813
vn -0.096666 0.905690 0.412773
vn -0.089165 0.905539 0.414787
vn 0.407956 0.881713 0.236970
vn 0.391561 0.919869 -0.022844
vn 0.250352 0.908621 0.334263
vn -0.053023 0.997921 -0.036639
vn 0.447669 0.820302 0.355945
vn 0.470333 0.878094 0.087962
vn 0.500136 0.821694 0.273283
vn 0.514946 0.817802 0.256965
vn 0.428630 0.887919 0.166964
vn 0.654373 0.740199 0.154600
vn 0.449303 0.874851 0.181006
vn 0.407977 0.910481 0.067675
vn 0.411124 0.895910 0.168291
vn 0.734302 0.667277 0.124668
vn 0.625141 0.650631 0.431137
vn 0.353097 0.921650 0.160882
vn 0.572178 0.819795 -0.023416
vn 0.621754 0.783179 0.007207
vn 0.432674 0.802138 -0.411543
vn 0.084613 0.844607 -0.528658
vn 0.763957 0.614897 -0.195632
vn 0.384931 0.919762 -0.076589
vn 0.416378 0.906366 -0.071624
vn 0.298139 0.698811 -0.650213
vn 0.029431 0.935544 -0.351982
vn 0.153316 0.932403 -0.327289
vn 0.620842 0.706037 -0.340687
vn 0.632565 0.704918 -0.320860
vn 0.156387 0.913882 -0.374649
vn 0.222293 0.794569 -0.565019
vn 0.036997 0.781205 -0.623177
vn -0.441177 0.633561 -0.635581
vn -0.072609 0.759982 -0.645876
vn -0.145470 0.779853 -0.608825
vn -0.125515 0.830524 -0.542656
vn -0.076025 0.785243 -0.614503
vn -0.101557 0.840723 -0.531856
vn -0.304403 0.917075 -0.257511
vn -0.531950 0.806197 -0.258988
vn -0.323156 0.919802 -0.222565
vn -0.450101 0.843579 -0.292890
vn -0.420163 0.783108 -0.458482
vn -0.438204 0.879769 -0.184347
vn -0.349220 0.885314 -0.307025
vn -0.565355 0.824281 0.030566
vn -0.549050 0.834692 -0.042816
vn -0.526383 0.844456 0.099072
vn -0.463317 0.885135 -0.043276
vn -0.489612 0.855769 0.167150
vn -0.529839 0.835457 0.145885
vn -0.479062 0.870005 -0.116581
vn -0.489391 0.864106 -0.117549
vn -0.557608 0.829004 -0.042725
vn -0.608409 0.793526 0.012490
vn -0.580550 0.801892 -0.141176
vn -0.665178 0.725729 0.175659
vn -0.432797 0.859516 0.271881
vn -0.457665 0.840620 0.289658
vn -0.480833 0.811373 0.332376
vn -0.400517 0.894916 -0.196754
vn 0.267933 0.800083 -0.536729
vn 0.007404 0.760446 -0.649359
vn 0.372732 0.714136 -0.592521
vn 0.338765 0.739006 -0.582330
vn 0.372808 0.765073 -0.525051
vn -0.152560 0.886232 -0.437398
s 1
f 1/1/1 2/92/2 4/2/3
f 4/2/3 2/92/2 37/4/4
f 8/7/5 5/6/6 14/8/7
f 9/9/8 5/6/6 8/7/5
f 16/12/9 10/11/10 15/10/11
f 19/13/12 21/14/13 13/15/14
f 22/16/15 13/15/14 21/14/13
f 23/17/16 13/15/14 22/16/15
f 25/18/17 20/19/18 24/20/19
f 42/25/20 41/107/21 43/26/22
f 44/27/23 41/107/21 42/25/20
f 51/28/24 41/107/21 46/24/25
f 54/32/26 59/117/27 53/33/28
f 55/34/29 59/117/27 54/32/26
f 57/35/30 59/117/27 55/34/29
f 64/38/31 62/39/32 63/40/33
f 65/41/34 62/39/32 64/38/31
f 68/42/35 62/39/32 66/43/36
f 69/44/37 62/39/32 67/45/38
f 70/46/39 62/39/32 69/44/37
f 76/47/40 74/49/41 73/48/42
f 77/50/43 74/49/41 76/47/40
f 78/51/44 74/49/41 77/50/43
f 81/54/45 80/53/46 74/49/41
f 80/53/46 79/52/47 74/49/41
f 81/58/45 99/135/48 80/56/46
f 79/57/47 80/56/46 99/135/48
f 103/66/49 98/65/50 97/67/51
f 111/68/52 106/142/53 109/69/54
f 127/74/55 125/75/56 126/76/57
f 128/77/58 125/75/56 127/74/55
f 138/78/59 125/75/56 128/77/58
f 134/81/60 132/82/61 133/83/62
f 135/84/63 132/82/61 134/81/60
f 136/85/64 132/82/61 135/84/63
f 137/86/65 132/82/61 136/85/64
f 142/87/66 144/88/67 143/89/68
f 145/90/69 143/89/68 144/88/67
f 146/91/70 143/89/68 145/90/69
f 1/1/1 4/2/3 124/148/71
f 11/5/72 2/92/2 1/1/1
f 12/3/73 2/92/2 11/5/72
f 140/79/74 11/5/72 131/80/75
f 11/5/72 1/1/1 131/80/75
f 3/93/76 12/3/73 28/98/77
f 12/3/73 3/93/76 2/92/2
f 3/93/76 36/104/78 2/92/2
f 3/93/76 28/98/77 36/104/78
f 124/148/71 4/2/3 104/140/79
f 5/6/6 11/5/72 140/79/74
f 14/8/7 5/6/6 7/94/80
f 5/6/6 6/95/81 7/94/80
f 132/82/61 137/86/65 5/6/6
f 5/6/6 137/86/65 6/95/81
f 5/6/6 9/9/8 10/11/10
f 10/11/10 13/15/14 5/6/6
f 5/6/6 13/15/14 20/19/18
f 16/12/9 17/96/82 10/11/10
f 10/11/10 17/96/82 13/15/14
f 5/6/6 20/19/18 11/5/72
f 11/5/72 20/19/18 12/3/73
f 12/3/73 20/19/18 28/98/77
f 13/15/14 17/96/82 19/13/12
f 19/13/12 17/96/82 18/97/83
f 13/15/14 23/17/16 20/19/18
f 20/19/18 23/17/16 24/20/19
f 20/19/18 25/18/17 27/99/84
f 27/99/84 25/18/17 26/100/85
f 29/22/86 20/19/18 27/99/84
f 20/19/18 32/102/87 28/98/77
f 29/22/86 32/102/87 20/19/18
f 30/21/88 31/101/89 29/22/86
f 29/22/86 31/101/89 32/102/87
f 32/102/87 33/103/90 28/98/77
f 28/98/77 33/103/90 39/109/91
f 28/98/77 39/109/91 36/104/78
f 33/103/90 40/108/92 39/109/91
f 33/103/90 41/107/21 40/108/92
f 41/107/21 33/103/90 35/106/93
f 35/106/93 33/103/90 34/105/94
f 43/26/22 41/107/21 35/106/93
f 2/92/2 36/104/78 38/23/95
f 48/110/96 2/92/2 38/23/95
f 36/104/78 39/109/91 38/23/95
f 39/109/91 40/108/92 38/23/95
f 45/111/97 46/24/25 41/107/21
f 45/111/97 41/107/21 44/27/23
f 41/107/21 49/31/98 40/108/92
f 49/31/98 41/107/21 50/30/99
f 50/30/99 41/107/21 51/28/24
f 47/113/100 85/61/101 4/2/3
f 85/29/101 47/112/100 37/4/4
f 37/4/4 47/112/100 4/2/3
f 37/4/4 2/92/2 48/110/96
f 40/108/92 48/110/96 38/23/95
f 52/114/102 37/4/4 48/110/96
f 40/108/92 52/114/102 48/110/96
f 49/31/98 59/117/27 40/108/92
f 40/108/92 59/117/27 52/114/102
f 59/117/27 49/31/98 53/33/28
f 59/117/27 57/35/30 56/115/103
f 58/116/104 59/117/27 56/115/103
f 59/117/27 58/116/104 62/39/32
f 62/39/32 58/116/104 63/40/33
f 59/117/27 62/39/32 52/114/102
f 37/4/4 84/118/105 85/29/101
f 62/39/32 65/41/34 66/43/36
f 67/45/38 62/39/32 68/42/35
f 62/39/32 74/49/41 72/122/106
f 62/39/32 70/46/39 74/49/41
f 74/49/41 70/46/39 71/121/107
f 73/48/42 74/49/41 71/121/107
f 74/49/41 79/52/47 72/122/106
f 79/52/47 88/55/108 72/122/106
f 88/55/108 87/123/109 72/122/106
f 74/49/41 78/51/44 75/124/110
f 74/49/41 75/124/110 81/54/45
f 81/58/45 75/125/110 82/59/111
f 81/58/45 82/59/111 90/128/112
f 85/61/101 84/60/105 101/136/113
f 99/135/48 87/127/109 88/126/108
f 99/135/48 81/58/45 90/128/112
f 92/133/114 99/135/48 91/132/115
f 91/132/115 99/135/48 90/128/112
f 99/135/48 92/133/114 95/63/116
f 95/63/116 92/133/114 93/134/117
f 101/136/113 104/140/79 85/61/101
f 94/137/118 95/63/116 93/134/117
f 98/65/50 95/63/116 96/64/119
f 96/64/119 95/63/116 94/137/118
f 100/139/120 95/63/116 98/65/50
f 97/67/51 98/65/50 96/64/119
f 103/66/49 102/138/121 98/65/50
f 98/65/50 113/70/122 100/139/120
f 100/139/120 113/70/122 116/71/123
f 116/71/123 101/136/113 100/139/120
f 116/71/123 104/140/79 101/136/113
f 100/139/120 99/135/48 95/63/116
f 106/142/53 98/65/50 105/141/124
f 98/65/50 102/138/121 105/141/124
f 98/65/50 106/142/53 113/70/122
f 106/142/53 105/141/124 107/143/125
f 106/142/53 111/68/52 110/144/126
f 113/70/122 106/142/53 112/145/127
f 112/145/127 106/142/53 110/144/126
f 117/147/128 113/70/122 114/146/129
f 113/70/122 112/145/127 114/146/129
f 117/147/128 115/72/130 113/70/122
f 113/70/122 115/72/130 116/71/123
f 116/71/123 115/72/130 120/150/131
f 118/149/132 115/72/130 117/147/128
f 122/152/133 120/150/131 118/149/132
f 118/149/132 120/150/131 115/72/130
f 119/151/134 122/152/133 118/149/132
f 122/152/133 119/151/134 123/153/135
f 121/73/136 120/150/131 122/152/133
f 104/140/79 120/150/131 121/73/136
f 130/154/137 124/148/71 104/140/79
f 104/140/79 121/73/136 130/154/137
f 122/152/133 125/75/56 121/73/136
f 121/73/136 125/75/56 130/154/137
f 125/75/56 122/152/133 126/76/57
f 126/76/57 122/152/133 123/153/135
f 131/80/75 1/1/1 124/148/71
f 130/154/137 131/80/75 124/148/71
f 129/155/138 125/75/56 138/78/59
f 139/156/139 140/79/74 129/155/138
f 129/155/138 140/79/74 125/75/56
f 131/80/75 130/154/137 140/79/74
f 140/79/74 130/154/137 125/75/56
f 132/82/61 5/6/6 140/79/74
f 133/83/62 132/82/61 146/91/70
f 143/89/68 146/91/70 132/82/61
f 141/157/140 140/79/74 139/156/139
f 140/79/74 141/157/140 143/89/68
f 143/89/68 141/157/140 142/87/66
f 106/142/53 107/143/125 108/158/141
f 109/69/54 106/142/53 108/158/141
f 79/57/47 99/135/48 88/126/108
f 104/140/79 4/2/3 85/61/101
f 104/140/79 116/71/123 120/150/131
f 140/79/74 143/89/68 132/82/61
f 52/114/102 62/39/32 61/37/142
f 37/4/4 86/119/143 84/118/105
f 86/119/143 37/4/4 60/36/144
f 62/39/32 72/122/106 61/37/142
f 60/36/144 147/159/145 83/120/146
f 147/159/145 61/37/142 83/120/146
f 61/37/142 72/122/106 83/120/146
f 72/122/106 87/123/109 83/120/146
f 87/127/109 89/131/147 83/129/146
f 86/62/143 60/130/144 89/131/147
f 60/130/144 83/129/146 89/131/147
f 84/60/105 86/62/143 101/136/113
f 101/136/113 86/62/143 89/131/147
f 89/131/147 87/127/109 99/135/48
f 101/136/113 89/131/147 100/139/120
f 100/139/120 89/131/147 99/135/48
f 61/37/142 147/159/145 60/36/144 37/4/4 52/114/102
